#!OML:ASF F:\VICON\USERDATA\INSTALL\rory3\rory3.ASF
:FULLY-SPECIFIED
:DEGREES
4499
root 5.19911 16.1808 -2.48828 -3.40994 -47.2001 14.7685
lowerback 13.7089 0.791592 -10.2634
upperback 1.69024 -0.509744 0.327773
thorax -5.8112 -0.0338002 6.26171
lowerneck -26.1651 1.29064 -8.12383
upperneck 19.7605 4.44824 1.76092
head 10.4209 1.61282 2.66305
rclavicle -5.96354e-015 -3.18055e-014
rhumerus -26.5003 4.59221 -83.1523
rradius 122.659
rwrist 10.78
rhand -25.2216 26.5666
rfingers 7.12502
rthumb 1.29756 -3.40924
lclavicle -5.96354e-015 -3.18055e-014
lhumerus -5.64406 -10.8877 84.9643
lradius 117.821
lwrist 4.70489
lhand -14.6609 8.4285
lfingers 7.12502
lthumb 11.4918 38.0935
rfemur -54.4836 -2.08865 0.0717562
rtibia 50.4378
rfoot 2.78624 -6.35829
rtoes 11.996
lfemur 7.03807 0.77724 -26.7849
ltibia 27.6063
lfoot -27.6434 -12.0312
ltoes -15.5758
4500
root 5.26009 16.1522 -2.54367 -3.04861 -46.7481 14.6196
lowerback 13.8122 0.827503 -10.3593
upperback 1.62583 -0.490971 0.337085
thorax -5.94072 -0.0122929 6.32517
lowerneck -26.1704 1.24268 -8.23602
upperneck 19.7599 4.43772 1.71268
head 10.422 1.59257 2.66188
rclavicle -1.13705e-013 3.33958e-014
rhumerus -26.8021 4.59852 -83.1745
rradius 122.415
rwrist 11.0512
rhand -25.1157 26.4683
rfingers 7.12502
rthumb 1.39985 -3.50681
lclavicle -1.13705e-013 3.33958e-014
lhumerus -5.55722 -10.9427 85.4582
lradius 117.803
lwrist 4.56291
lhand -14.5797 8.15423
lfingers 7.12502
lthumb 11.5701 37.8148
rfemur -54.7996 -2.22505 -0.199467
rtibia 50.3874
rfoot 2.76204 -6.52415
rtoes 14.2234
lfemur 6.37148 0.0180492 -26.9438
ltibia 28.0014
lfoot -28.6293 -11.3995
ltoes -15.4055
4501
root 5.31242 16.1261 -2.59473 -2.42284 -46.2218 14.1857
lowerback 13.873 0.78402 -10.3043
upperback 1.48214 -0.547051 0.416769
thorax -6.11921 -0.0233429 6.39308
lowerneck -26.12 1.22516 -8.43233
upperneck 19.935 4.47323 1.77214
head 10.4697 1.59416 2.72351
rclavicle 3.71727e-014 1.19271e-014
rhumerus -27.1562 4.8151 -83.2444
rradius 122.196
rwrist 11.1158
rhand -24.9807 26.4353
rfingers 7.12502
rthumb 1.53021 -3.53901
lclavicle 3.71727e-014 1.19271e-014
lhumerus -5.76253 -10.9375 85.9505
lradius 117.809
lwrist 4.33961
lhand -14.5691 7.67725
lfingers 7.12502
lthumb 11.5803 37.3373
rfemur -55.0876 -2.57987 0.00588384
rtibia 50.2185
rfoot 3.01803 -6.68881
rtoes 13.7062
lfemur 5.71775 -0.617128 -26.7564
ltibia 28.2425
lfoot -29.5334 -10.7512
ltoes -15.6919
4502
root 5.35485 16.1248 -2.6412 -1.70561 -45.64 13.6148
lowerback 13.8264 0.716556 -10.0335
upperback 1.36863 -0.592405 0.423852
thorax -6.21007 -0.0418226 6.25516
lowerneck -25.942 1.20106 -8.46574
upperneck 20.0358 4.42963 1.80106
head 10.4763 1.57204 2.73182
rclavicle 4.57205e-015 1.11319e-014
rhumerus -27.5021 5.00667 -83.412
rradius 122.015
rwrist 10.8438
rhand -24.9997 26.6235
rfingers 7.12502
rthumb 1.51185 -3.35086
lclavicle 4.57205e-015 1.11319e-014
lhumerus -6.04288 -11.071 86.3751
lradius 117.873
lwrist 4.10675
lhand -14.5549 7.40833
lfingers 7.12502
lthumb 11.594 37.0676
rfemur -55.2144 -2.82497 0.127987
rtibia 49.9017
rfoot 3.21445 -7.02117
rtoes 14.2008
lfemur 5.05307 -1.09246 -26.3552
ltibia 28.4823
lfoot -30.2272 -10.2888
ltoes -16.2816
4503
root 5.38848 16.1418 -2.68328 -1.12133 -45.0577 13.1433
lowerback 13.6807 0.70585 -9.76652
upperback 1.3654 -0.5514 0.379469
thorax -6.14252 -0.032234 6.04479
lowerneck -25.9662 1.10618 -8.43736
upperneck 20.1686 4.29467 1.79896
head 10.5382 1.50681 2.70974
rclavicle 5.20816e-014 -3.18055e-014
rhumerus -27.6876 5.10087 -83.426
rradius 121.912
rwrist 10.1659
rhand -24.8607 26.651
rfingers 7.12502
rthumb 1.64611 -3.32237
lclavicle 5.20816e-014 -3.18055e-014
lhumerus -6.12359 -11.3732 86.7571
lradius 117.892
lwrist 3.94813
lhand -14.5117 7.22627
lfingers 7.12502
lthumb 11.6357 36.8832
rfemur -55.1307 -2.97755 0.0140074
rtibia 49.4735
rfoot 3.39632 -7.25091
rtoes 14.822
lfemur 4.48501 -1.63208 -26.0306
ltibia 28.6796
lfoot -30.5832 -10.0548
ltoes -16.2219
4504
root 5.41255 16.1557 -2.72551 -0.549018 -44.4934 12.6513
lowerback 13.5539 0.703703 -9.50534
upperback 1.38617 -0.502644 0.326272
thorax -6.06055 -0.020386 5.82734
lowerneck -26.1062 1.07493 -8.28384
upperneck 20.3642 4.24037 1.69149
head 10.6449 1.47138 2.64541
rclavicle 2.20651e-014 -2.06736e-014
rhumerus -27.7929 5.17559 -83.5288
rradius 121.887
rwrist 9.33209
rhand -24.6788 26.6011
rfingers 7.12502
rthumb 1.82175 -3.37085
lclavicle 2.20651e-014 -2.06736e-014
lhumerus -6.15014 -11.7739 86.9879
lradius 117.879
lwrist 3.93296
lhand -14.746 7.43532
lfingers 7.12502
lthumb 11.4097 37.1049
rfemur -54.9723 -3.33411 0.250864
rtibia 48.9428
rfoot 3.9915 -7.10619
rtoes 11.482
lfemur 4.00565 -2.02268 -25.6006
ltibia 28.8022
lfoot -30.774 -9.9192
ltoes -16.3993
4505
root 5.42331 16.1816 -2.76918 -0.0648288 -44.0081 12.258
lowerback 13.3988 0.741597 -9.41746
upperback 1.43626 -0.423422 0.27263
thorax -5.93469 0.00746239 5.70228
lowerneck -26.2369 1.06009 -8.05212
upperneck 20.4404 4.21056 1.44284
head 10.7108 1.43926 2.51753
rclavicle 4.57205e-015 -1.66979e-014
rhumerus -27.8023 5.34972 -83.7763
rradius 121.924
rwrist 8.34811
rhand -24.8966 26.5489
rfingers 7.12502
rthumb 1.61145 -3.42477
lclavicle 4.57205e-015 -1.66979e-014
lhumerus -6.27891 -12.244 87.2037
lradius 117.869
lwrist 3.55989
lhand -15.4049 7.96167
lfingers 7.12502
lthumb 10.7742 37.6654
rfemur -54.7825 -3.51703 0.365517
rtibia 48.3684
rfoot 4.53927 -6.99068
rtoes 9.82919
lfemur 3.55087 -2.14773 -25.1153
ltibia 28.8803
lfoot -30.7238 -10.0553
ltoes -16.8886
4506
root 5.42385 16.2248 -2.81011 0.470553 -43.5746 11.7261
lowerback 13.3167 0.762661 -9.17522
upperback 1.44174 -0.354616 0.205903
thorax -5.89641 0.0326219 5.4791
lowerneck -26.2162 0.963047 -8.04678
upperneck 20.4062 4.06036 1.48549
head 10.7014 1.37866 2.5075
rclavicle 3.99557e-014 -2.14687e-014
rhumerus -28.0007 5.76536 -84.0794
rradius 122.119
rwrist 7.40672
rhand -25.2145 26.3292
rfingers 7.12502
rthumb 1.3044 -3.64651
lclavicle 3.99557e-014 -2.14687e-014
lhumerus -6.67008 -12.7322 87.3232
lradius 117.958
lwrist 3.00776
lhand -16.1235 8.58425
lfingers 7.12502
lthumb 10.081 38.3228
rfemur -54.474 -3.44479 0.405599
rtibia 47.7662
rfoot 5.00695 -6.8311
rtoes 10.1571
lfemur 3.11562 -2.26633 -24.4643
ltibia 28.9595
lfoot -30.2226 -10.7141
ltoes -16.5378
4507
root 5.41518 16.2742 -2.85039 0.886606 -43.1095 11.3182
lowerback 13.3484 0.80609 -9.05446
upperback 1.40154 -0.289411 0.126493
thorax -5.96894 0.0656274 5.3138
lowerneck -26.1754 0.817723 -8.10548
upperneck 20.3076 3.83941 1.62524
head 10.6646 1.2964 2.53015
rclavicle 5.1684e-015 7.95139e-015
rhumerus -28.3239 6.02914 -84.2838
rradius 122.368
rwrist 7.25061
rhand -25.2278 26.1171
rfingers 7.12502
rthumb 1.29152 -3.85875
lclavicle 5.1684e-015 7.95139e-015
lhumerus -7.14986 -13.0622 87.3686
lradius 118.088
lwrist 3.05811
lhand -16.2503 8.77304
lfingers 7.12502
lthumb 9.95865 38.5175
rfemur -54.0874 -3.32212 0.331855
rtibia 47.2127
rfoot 5.51341 -6.30441
rtoes 8.67187
lfemur 2.75651 -2.39107 -23.8586
ltibia 28.9702
lfoot -29.3682 -11.6631
ltoes -15.6695
4508
root 5.39493 16.3331 -2.89111 1.14336 -42.6622 11.1277
lowerback 13.5791 0.979184 -9.4614
upperback 1.22888 -0.144154 0.257246
thorax -6.30584 0.171714 5.6624
lowerneck -26.1668 0.606338 -8.42152
upperneck 20.4122 3.65511 1.68661
head 10.7062 1.19078 2.57633
rclavicle 5.50634e-014 3.97569e-015
rhumerus -28.7627 6.1262 -84.1198
rradius 122.594
rwrist 7.63989
rhand -25.0839 26.2338
rfingers 7.12502
rthumb 1.43055 -3.74113
lclavicle 5.50634e-014 3.97569e-015
lhumerus -7.97862 -13.1885 87.9163
lradius 118.161
lwrist 3.19077
lhand -16.1982 8.58789
lfingers 7.12502
lthumb 10.0089 38.3299
rfemur -53.6428 -3.09023 0.058148
rtibia 46.7605
rfoot 5.80269 -5.48323
rtoes 6.78732
lfemur 2.43143 -2.38425 -23.3506
ltibia 28.9327
lfoot -28.2983 -12.7195
ltoes -15.091
4509
root 5.3637 16.3996 -2.92516 1.18807 -42.2067 11.1772
lowerback 13.4237 1.05408 -9.66323
upperback 1.34641 -0.067954 0.0479781
thorax -6.1056 0.196376 5.53485
lowerneck -26.4279 0.379663 -8.59246
upperneck 20.4163 3.35867 1.98422
head 10.7609 1.08145 2.66993
rclavicle -5.96354e-015 -3.26007e-014
rhumerus -28.8543 6.08177 -84.3993
rradius 122.739
rwrist 8.21556
rhand -24.9994 26.4979
rfingers 7.12502
rthumb 1.51217 -3.47644
lclavicle -5.96354e-015 -3.26007e-014
lhumerus -8.48537 -13.3427 87.8777
lradius 118.136
lwrist 3.00115
lhand -16.016 8.03642
lfingers 7.12502
lthumb 10.1847 37.7699
rfemur -53.0785 -2.95629 -0.351271
rtibia 46.4378
rfoot 5.86103 -4.25949
rtoes 4.89512
lfemur 2.16375 -2.42018 -23.0337
ltibia 28.9318
lfoot -27.0356 -13.737
ltoes -14.7132
4510
root 5.32596 16.4721 -2.9545 1.128 -41.6387 11.4143
lowerback 13.2489 1.10306 -10.0384
upperback 1.44969 -0.0480283 -0.158481
thorax -5.90058 0.197851 5.5195
lowerneck -26.5993 0.185282 -8.74791
upperneck 20.3285 3.09831 2.24968
head 10.7657 0.989523 2.7514
rclavicle 2.5842e-015 -1.66979e-014
rhumerus -29.0576 6.07348 -84.5748
rradius 122.979
rwrist 8.90588
rhand -24.7931 26.6215
rfingers 7.12502
rthumb 1.71139 -3.35142
lclavicle 2.5842e-015 -1.66979e-014
lhumerus -8.90984 -13.4157 87.6855
lradius 118.035
lwrist 2.81898
lhand -15.6635 7.34529
lfingers 7.12502
lthumb 10.5248 37.0618
rfemur -52.4465 -2.98537 -0.88454
rtibia 46.2596
rfoot 5.65214 -2.74208
rtoes 2.26638
lfemur 1.84467 -2.55749 -22.8625
ltibia 28.9961
lfoot -25.5551 -14.7743
ltoes -13.8233
